<svg width="20" height="17" viewBox="0 0 20 17" fill="none" xmlns="http://www.w3.org/2000/svg">
    <path opacity="0.8" d="M19.2499 6.96141H17.75V5.46145C17.75 5.04896 17.4156 4.71147 17 4.71147C16.5844 4.71147 16.25 5.0474 16.25 5.46145V6.96141H14.7501C14.3376 6.96141 14.0001 7.2989 14.0001 7.71139C14.0001 8.12388 14.336 8.46137 14.7501 8.46137H16.25V9.96133C16.25 10.3769 16.5875 10.7113 17 10.7113C17.4125 10.7113 17.75 10.3754 17.75 9.96133V8.46137H19.2499C19.6656 8.46137 19.9999 8.12701 19.9999 7.71139C19.9999 7.29578 19.6656 6.96141 19.2499 6.96141Z" fill="#828891"/>
    <path d="M7.0003 8.71121C9.20962 8.71121 11.0002 6.92032 11.0002 4.71132C11.0002 2.50232 9.20962 0.711426 7.0003 0.711426C4.79099 0.711426 3.00041 2.50232 3.00041 4.71132C3.00041 6.92032 4.79099 8.71121 7.0003 8.71121ZM8.58464 10.2112H5.41597C2.42574 10.2112 0.000488281 12.6361 0.000488281 15.6267C0.000488281 16.2266 0.485475 16.711 1.08358 16.711H12.9176C13.5158 16.711 14.0001 16.2266 14.0001 15.6267C14.0001 12.6361 11.5752 10.2112 8.58464 10.2112Z" fill="#353B40"/>
</svg>
